<svg xmlns="http://www.w3.org/2000/svg" xml:space="preserve" style="fill-rule:evenodd;clip-rule:evenodd;stroke-linejoin:round;stroke-miterlimit:2" viewBox="0 0 2917 417">
  <path d="M0 0h2916.47v416.75H0z" style="fill:none"/>
  <path d="M.211-.347c0 .034.004.065.013.092.008.027.02.051.036.071.015.019.034.034.057.045.023.011.049.016.078.016.029 0 .054-.005.078-.016C.495-.15.515-.165.53-.184c.016-.02.028-.044.036-.071.009-.027.013-.058.013-.092 0-.034-.004-.065-.013-.093C.558-.467.546-.491.53-.511.515-.53.495-.545.473-.556.449-.567.424-.572.395-.572c-.029 0-.055.005-.078.016S.275-.529.26-.51c-.016.02-.028.044-.037.071-.008.028-.012.059-.012.092Zm.529 0c0 .059-.009.111-.026.156-.018.045-.042.083-.073.113-.031.031-.067.054-.11.069C.489.006.444.014.395.014.348.014.303.006.261-.009.219-.024.182-.047.151-.078.12-.108.095-.146.077-.191.059-.236.05-.288.05-.347s.009-.112.028-.157c.019-.045.044-.082.075-.113.032-.031.069-.054.11-.069.042-.015.086-.023.132-.023.047 0 .092.008.134.023.042.015.079.038.11.069.031.031.056.068.074.113.018.045.027.098.027.157Z" style="fill:#fff;fill-rule:nonzero" transform="matrix(300 0 0 300 132.716789 296.51517)"/>
  <path d="M.407-.259c0-.046-.01-.083-.031-.11C.355-.397.325-.411.284-.411c-.013 0-.026 0-.037.001s-.021.003-.028.004v.269c.009.006.021.011.036.015.016.004.031.006.046.006.071 0 .106-.048.106-.143Zm.152-.004c0 .041-.005.078-.015.111C.534-.119.519-.09.5-.066.481-.042.457-.023.428-.01.399.003.366.01.329.01.308.01.289.008.271.004.253 0 .236-.006.219-.013v.198H.07v-.693c.013-.004.029-.008.046-.011.017-.004.036-.007.055-.01.019-.003.038-.005.058-.006.019-.002.038-.003.056-.003.043 0 .082.007.116.02.034.013.063.031.086.054.023.024.041.053.053.087.013.034.019.072.019.114Z" style="fill:#fff;fill-rule:nonzero" transform="matrix(300 0 0 300 354.699033 296.51517)"/>
  <path d="M.045-.259c0-.047.007-.088.022-.123C.081-.417.1-.446.123-.469c.023-.023.05-.041.081-.053.03-.012.061-.018.093-.018.075 0 .134.023.177.069.043.045.065.112.065.201 0 .009 0 .018-.001.029-.001.01-.001.019-.002.027H.198c.003.031.018.055.043.073.025.018.059.027.102.027.027 0 .054-.002.08-.007C.45-.126.471-.133.488-.14l.02.121C.5-.015.489-.011.476-.007.463-.003.448.001.432.004.415.007.398.009.379.011.36.013.342.014.323.014.276.014.234.007.199-.007.164-.021.135-.04.112-.064.09-.089.072-.118.061-.151.05-.184.045-.22.045-.259Zm.35-.057C.394-.329.392-.341.388-.353.385-.365.379-.376.371-.385.364-.394.354-.402.343-.408.331-.414.316-.417.299-.417c-.017 0-.031.003-.043.009-.012.005-.022.013-.03.022s-.014.02-.018.033C.203-.341.2-.329.198-.316h.197Z" style="fill:#fff;fill-rule:nonzero" transform="matrix(300 0 0 300 526.911678 296.51517)"/>
  <path d="M.07-.508c.025-.007.058-.014.098-.02.04-.007.082-.01.126-.01.045 0 .082.006.111.018.03.011.054.028.071.049.017.021.03.047.037.076.007.029.011.062.011.098V0H.375v-.279c0-.048-.006-.082-.019-.102-.013-.02-.036-.03-.071-.03-.011 0-.022.001-.034.002-.012.001-.023.002-.032.003V0H.07v-.508Z" style="fill:#fff;fill-rule:nonzero" transform="matrix(300 0 0 300 690.101595 296.51517)"/>
  <path d="M.594-.693v.133H.385V0H.229v-.56H.02v-.133h.574Z" style="fill:#1e96fc;fill-rule:nonzero" transform="matrix(300 0 0 300 839.815258 296.51517)"/>
  <path d="M.562-.264c0 .041-.006.079-.018.114-.012.034-.029.063-.052.088-.023.024-.05.043-.082.056-.031.013-.067.02-.106.02C.265.014.23.007.198-.006.167-.019.14-.038.117-.062.094-.087.077-.116.064-.15.051-.185.045-.223.045-.264c0-.041.006-.079.019-.113S.095-.44.118-.464C.141-.488.169-.507.2-.52c.032-.013.067-.02.104-.02.038 0 .073.007.104.02.032.013.059.032.082.056.023.024.04.053.053.087.013.034.019.072.019.113Zm-.152 0C.41-.31.401-.346.382-.372.364-.399.338-.412.304-.412s-.06.013-.079.039C.206-.346.197-.31.197-.264s.009.083.028.11c.019.027.045.04.079.04s.06-.013.079-.04C.401-.181.41-.218.41-.264Z" style="fill:#1e96fc;fill-rule:nonzero" transform="matrix(300 0 0 300 977.498617 296.51517)"/>
  <path d="M.219-.336c.015-.016.03-.033.046-.05.015-.017.03-.035.045-.051.015-.018.029-.034.042-.049.013-.015.024-.029.033-.04h.177c-.035.041-.07.079-.104.116-.033.038-.07.076-.11.115.02.018.041.04.062.065.021.025.042.05.062.077.02.027.038.053.055.08.017.027.031.051.042.073H.398C.387-.017.375-.036.361-.057.348-.078.333-.099.318-.12.303-.141.286-.162.269-.181.252-.2.236-.217.219-.23V0H.07v-.752l.149-.024v.44Z" style="fill:#1e96fc;fill-rule:nonzero" transform="matrix(300 0 0 300 1144.621518 296.51517)"/>
  <path d="M.045-.259c0-.047.007-.088.022-.123C.081-.417.1-.446.123-.469c.023-.023.05-.041.081-.053.03-.012.061-.018.093-.018.075 0 .134.023.177.069.043.045.065.112.065.201 0 .009 0 .018-.001.029-.001.01-.001.019-.002.027H.198c.003.031.018.055.043.073.025.018.059.027.102.027.027 0 .054-.002.08-.007C.45-.126.471-.133.488-.14l.02.121C.5-.015.489-.011.476-.007.463-.003.448.001.432.004.415.007.398.009.379.011.36.013.342.014.323.014.276.014.234.007.199-.007.164-.021.135-.04.112-.064.09-.089.072-.118.061-.151.05-.184.045-.22.045-.259Zm.35-.057C.394-.329.392-.341.388-.353.385-.365.379-.376.371-.385.364-.394.354-.402.343-.408.331-.414.316-.417.299-.417c-.017 0-.031.003-.043.009-.012.005-.022.013-.03.022s-.014.02-.018.033C.203-.341.2-.329.198-.316h.197Z" style="fill:#1e96fc;fill-rule:nonzero" transform="matrix(300 0 0 300 1295.52086 296.51517)"/>
  <path d="M.07-.508c.025-.007.058-.014.098-.02.04-.007.082-.01.126-.01.045 0 .082.006.111.018.03.011.054.028.071.049.017.021.03.047.037.076.007.029.011.062.011.098V0H.375v-.279c0-.048-.006-.082-.019-.102-.013-.02-.036-.03-.071-.03-.011 0-.022.001-.034.002-.012.001-.023.002-.032.003V0H.07v-.508Z" style="fill:#1e96fc;fill-rule:nonzero" transform="matrix(300 0 0 300 1458.710777 296.51517)"/>
  <path d="M.283-.701c.104 0 .184.018.239.056.055.037.083.094.083.172 0 .049-.011.088-.033.118C.549-.324.517-.3.475-.283c.014.017.029.037.044.059.015.023.03.046.045.07.015.025.03.05.044.076.014.027.027.053.039.078H.472L.433-.069C.42-.092.407-.115.393-.137.38-.159.366-.18.353-.2.34-.219.326-.237.313-.253H.236V0H.08v-.683C.114-.69.149-.694.185-.697.222-.7.254-.701.283-.701Zm.009.133c-.011 0-.022 0-.031.001-.009.001-.017.001-.025.002v.188H.28c.059 0 .101-.007.126-.022.025-.015.038-.04.038-.075 0-.034-.013-.058-.039-.072C.38-.561.342-.568.292-.568Z" style="fill:#fff;fill-rule:nonzero" transform="matrix(300 0 0 300 1620.396906 296.51517)"/>
  <path d="M.045-.259c0-.047.007-.088.022-.123C.081-.417.1-.446.123-.469c.023-.023.05-.041.081-.053.03-.012.061-.018.093-.018.075 0 .134.023.177.069.043.045.065.112.065.201 0 .009 0 .018-.001.029-.001.01-.001.019-.002.027H.198c.003.031.018.055.043.073.025.018.059.027.102.027.027 0 .054-.002.08-.007C.45-.126.471-.133.488-.14l.02.121C.5-.015.489-.011.476-.007.463-.003.448.001.432.004.415.007.398.009.379.011.36.013.342.014.323.014.276.014.234.007.199-.007.164-.021.135-.04.112-.064.09-.089.072-.118.061-.151.05-.184.045-.22.045-.259Zm.35-.057C.394-.329.392-.341.388-.353.385-.365.379-.376.371-.385.364-.394.354-.402.343-.408.331-.414.316-.417.299-.417c-.017 0-.031.003-.043.009-.012.005-.022.013-.03.022s-.014.02-.018.033C.203-.341.2-.329.198-.316h.197Z" style="fill:#fff;fill-rule:nonzero" transform="matrix(300 0 0 300 1804.003637 296.51517)"/>
  <path d="M.197-.28c0 .083.034.125.101.125.015 0 .03-.002.043-.006.013-.004.025-.009.034-.014v-.238C.368-.414.359-.416.349-.416.339-.417.327-.418.314-.418c-.039 0-.069.013-.088.039C.207-.353.197-.32.197-.28Zm.327.214c0 .086-.022.15-.066.192C.415.167.347.188.256.188.224.188.192.185.16.18.128.174.098.166.071.157L.097.032C.12.041.145.049.171.054c.025.005.054.008.087.008.043 0 .073-.009.091-.028.017-.019.026-.043.026-.072v-.019C.359-.05.343-.044.326-.04.308-.037.29-.035.27-.035c-.073 0-.128-.021-.167-.064C.064-.142.045-.203.045-.28c0-.039.006-.074.018-.105.012-.032.03-.059.053-.082C.138-.49.167-.507.2-.519c.033-.013.071-.019.113-.019.018 0 .036.001.055.003.02.001.038.003.057.006.019.003.037.006.054.01.017.003.032.007.045.011v.442Z" style="fill:#fff;fill-rule:nonzero" transform="matrix(300 0 0 300 1970.20113 296.51517)"/>
  <path d="M.219 0H.07v-.526h.149V0Zm.014-.678c0 .027-.009.049-.026.065C.189-.598.168-.59.144-.59S.099-.598.081-.614C.064-.629.055-.651.055-.678c0-.027.009-.049.026-.065.018-.015.039-.023.063-.023s.045.008.063.023c.017.016.026.038.026.065Z" style="fill:#fff;fill-rule:nonzero" transform="matrix(300 0 0 300 2136.398623 296.51517)"/>
  <path d="M.221-.107c.027 0 .047-.003.058-.008C.29-.12.296-.131.296-.146c0-.012-.007-.023-.022-.032C.259-.187.237-.197.207-.208.184-.217.162-.226.143-.235.124-.244.108-.256.095-.269.082-.282.071-.297.064-.315.057-.333.053-.355.053-.38c0-.049.018-.088.055-.117C.145-.526.195-.54.259-.54c.032 0 .063.003.092.009.029.005.053.011.07.018l-.026.116C.378-.403.359-.408.339-.413.318-.418.295-.42.27-.42.223-.42.2-.407.2-.381c0 .006.001.011.003.016.002.005.006.009.012.014.006.004.014.009.025.014.01.005.023.01.039.016.033.012.06.024.081.035.021.012.038.025.051.039.012.013.021.028.026.045.005.017.007.036.007.058 0 .052-.019.091-.058.118C.347.001.291.014.22.014.173.014.134.01.104.002.073-.006.051-.013.039-.018l.025-.121c.025.01.051.018.078.024.027.005.053.008.079.008Z" style="fill:#fff;fill-rule:nonzero" transform="matrix(300 0 0 300 2217.111552 296.51517)"/>
  <path d="m.065-.657.149-.024v.155h.179v.124H.214v.185c0 .031.005.056.016.075.011.019.034.028.067.028.016 0 .032-.001.049-.004s.033-.008.047-.013l.021.116c-.018.007-.038.014-.06.019C.332.009.305.012.273.012.232.012.199.007.172-.004.145-.015.124-.031.108-.05.092-.07.081-.094.074-.122.068-.15.065-.181.065-.215v-.442Z" style="fill:#fff;fill-rule:nonzero" transform="matrix(300 0 0 300 2347.59408 296.51517)"/>
  <path d="M.387-.394C.374-.397.358-.401.34-.405.322-.408.303-.41.282-.41c-.009 0-.021.001-.034.003-.013.001-.022.003-.029.005V0H.07v-.498c.027-.009.058-.018.094-.026.037-.009.077-.013.122-.013.008 0 .018 0 .029.002.011.001.023.002.034.004.011.001.023.003.034.006.011.002.021.005.029.008l-.025.123Z" style="fill:#fff;fill-rule:nonzero" transform="matrix(300 0 0 300 2474.808761 296.51517)"/>
  <path d="M.537-.526c-.03.101-.061.196-.094.285C.41-.152.375-.066.336.017.322.047.308.072.294.093.28.114.265.132.248.145.231.159.212.169.191.176.17.182.146.185.118.185.095.185.073.183.053.178.034.174.018.169.005.164L.031.045C.046.05.06.054.072.056S.097.059.11.059C.137.059.157.052.171.038.186.023.198.003.208-.022.174-.089.14-.164.106-.246.072-.329.04-.423.01-.526h.158c.007.026.014.054.023.085.009.03.019.06.029.091.01.031.02.062.03.091.011.029.021.056.03.08.009-.024.018-.051.027-.08.009-.029.018-.059.027-.091.009-.031.018-.061.026-.092.009-.03.016-.058.023-.084h.154Z" style="fill:#fff;fill-rule:nonzero" transform="matrix(300 0 0 300 2607.691566 296.51517)"/>
</svg>
